<?xml version="1.0" encoding="utf-8"?><svg xmlns="http://www.w3.org/2000/svg" xmlns:xlink="http://www.w3.org/1999/xlink"><symbol fill="none" viewBox="0 0 72 48" id="applepay" xmlns="http://www.w3.org/2000/svg"><rect x=".5" y=".5" width="71" height="47" rx="3.5" fill="#fff" stroke="#DDD"/><path fill-rule="evenodd" clip-rule="evenodd" d="M17.675 17.86c.937.078 1.875-.476 2.46-1.178.577-.723.958-1.692.86-2.682-.83.04-1.855.554-2.441 1.277-.537.623-.997 1.632-.88 2.582zm11.153 12.744V15.178h5.714c2.95 0 5.01 2.058 5.01 5.066s-2.1 5.086-5.088 5.086h-3.272v5.274h-2.364zm-7.842-12.557c-.826-.048-1.58.252-2.189.494-.392.156-.723.288-.976.288-.283 0-.629-.14-1.016-.295-.509-.205-1.09-.439-1.699-.427-1.397.02-2.696.82-3.409 2.097-1.464 2.553-.38 6.333 1.036 8.411.693 1.03 1.523 2.158 2.617 2.118.482-.018.828-.167 1.186-.321.412-.178.84-.362 1.51-.362.646 0 1.055.18 1.449.352.374.164.733.32 1.266.311 1.133-.02 1.846-1.029 2.54-2.058.748-1.105 1.077-2.183 1.126-2.346l.006-.019-.026-.013c-.25-.116-2.163-1.003-2.181-3.381-.018-1.996 1.517-3.008 1.758-3.167l.03-.02c-.977-1.464-2.501-1.622-3.028-1.662zm22.883 12.676c1.485 0 2.862-.762 3.487-1.969h.049v1.85h2.188v-7.678c0-2.227-1.758-3.662-4.464-3.662-2.51 0-4.365 1.455-4.434 3.454h2.13c.175-.95 1.044-1.573 2.236-1.573 1.445 0 2.256.682 2.256 1.939v.851l-2.95.178c-2.744.168-4.229 1.306-4.229 3.285 0 2 1.534 3.325 3.731 3.325zm.635-1.83c-1.26 0-2.061-.614-2.061-1.554 0-.97.771-1.534 2.246-1.623l2.627-.168v.87c0 1.445-1.21 2.474-2.812 2.474zm12.345 2.315c-.947 2.702-2.031 3.592-4.336 3.592-.176 0-.762-.02-.899-.06v-1.85c.147.02.508.04.694.04 1.045 0 1.63-.446 1.992-1.603l.215-.683-4.004-11.231h2.47l2.784 9.113h.05l2.783-9.113H61l-4.15 11.795zM31.192 17.196h2.725c2.05 0 3.223 1.108 3.223 3.058 0 1.95-1.172 3.067-3.233 3.067h-2.715v-6.125z" fill="#000"/></symbol><symbol fill="none" viewBox="0 0 24 24" id="cart" xmlns="http://www.w3.org/2000/svg"><path d="M9.375 20.25a1.875 1.875 0 11-3.75 0 1.875 1.875 0 013.75 0zm7.875-1.875a1.875 1.875 0 100 3.75 1.875 1.875 0 000-3.75zm4.825-11.294l-2.558 8.316a2.614 2.614 0 01-2.51 1.853H7.775a2.637 2.637 0 01-2.525-1.904L2.045 4.125h-.92a1.125 1.125 0 010-2.25h1.202a1.882 1.882 0 011.803 1.36l.683 2.39H21a1.125 1.125 0 011.075 1.456zm-2.598.794H5.455l1.959 6.853a.375.375 0 00.36.272h9.233a.375.375 0 00.36-.264l2.11-6.861z" fill="#000"/></symbol><symbol fill="none" viewBox="0 0 16 16" id="chevron-right" xmlns="http://www.w3.org/2000/svg"><path d="M6.53 2.47l5 5a.75.75 0 010 1.062l-5 5a.751.751 0 01-1.062-1.063L9.938 8l-4.47-4.47A.751.751 0 116.53 2.469v.001z" fill="#000"/></symbol><symbol fill="none" viewBox="0 0 24 25" id="circle-check-green" xmlns="http://www.w3.org/2000/svg"><path d="M12 2.829a9.75 9.75 0 109.75 9.75A9.76 9.76 0 0012 2.829zm4.28 8.03l-5.25 5.25a.749.749 0 01-1.06 0l-2.25-2.25a.75.75 0 111.06-1.06l1.72 1.72 4.72-4.72a.751.751 0 011.06 1.06z" fill="#01AB31"/></symbol><symbol fill="none" viewBox="0 0 28 28" id="facebook" xmlns="http://www.w3.org/2000/svg"><circle cx="14" cy="14" r="14" fill="#fff"/><circle cx="14" cy="14" r="13.5" stroke="#000" stroke-opacity=".2"/><path d="M12.709 20.304V14.75h-1.87v-2.164h1.87V10.99c0-1.852 1.131-2.861 2.783-2.861.792 0 1.472.059 1.67.085v1.936h-1.146c-.898 0-1.072.428-1.072 1.054v1.382h2.143l-.28 2.164h-1.863v5.554h-2.235z" fill="#000"/><path d="M15.492 8.629c.455 0 .87.02 1.17.042v.98h-.645c-.516 0-.963.121-1.256.47-.277.328-.318.748-.318 1.083v1.882h2.076l-.15 1.164h-1.926v5.554H13.21V14.25h-1.87v-1.164h1.87V10.99c0-.822.248-1.399.623-1.77.376-.371.936-.591 1.66-.591z" stroke="#000" stroke-opacity=".2"/></symbol><symbol fill="none" viewBox="0 0 28 28" id="github" xmlns="http://www.w3.org/2000/svg"><circle cx="14" cy="14" r="14" fill="#fff"/><circle cx="14" cy="14" r="13.5" stroke="#000" stroke-opacity=".2"/><path fill-rule="evenodd" clip-rule="evenodd" d="M14.607 7.227a6.464 6.464 0 00-6.48 6.48c0 2.861 1.863 5.291 4.428 6.155.324.054.432-.135.432-.324v-1.107c-1.81.405-2.187-.864-2.187-.864-.297-.756-.73-.945-.73-.945-.593-.405.055-.405.055-.405.648.054.999.675.999.675.567 1 1.512.702 1.89.54.054-.432.216-.702.405-.864-1.431-.162-2.943-.729-2.943-3.213 0-.702.243-1.296.675-1.728-.054-.162-.297-.81.054-1.727 0 0 .54-.162 1.782.675a6.506 6.506 0 011.62-.216c.54 0 1.107.08 1.62.216 1.242-.837 1.782-.675 1.782-.675.35.89.135 1.538.054 1.727.405.46.675 1.026.675 1.728 0 2.484-1.512 3.024-2.97 3.186.243.19.432.594.432 1.188v1.782c0 .162.108.378.459.324a6.448 6.448 0 004.428-6.129 6.464 6.464 0 00-6.48-6.48z" fill="#000"/></symbol><symbol fill="none" viewBox="0 0 72 48" id="googlepay" xmlns="http://www.w3.org/2000/svg"><rect x=".5" y=".5" width="71" height="47" rx="3.5" fill="#fff" stroke="#DDD"/><path fill-rule="evenodd" clip-rule="evenodd" d="M34.06 30.514v-6.046h3.119c1.277 0 2.356-.428 3.235-1.273l.211-.214a4.354 4.354 0 00-.21-6.093 4.45 4.45 0 00-3.236-1.298h-5.006v14.924h1.887zm0-7.878v-5.213h3.166c.68 0 1.325.262 1.806.738 1.02 1 1.044 2.666.059 3.701a2.45 2.45 0 01-1.865.774H34.06zM49.43 21.1c-.81-.75-1.911-1.13-3.307-1.13-1.793 0-3.141.666-4.032 1.987l1.664 1.06c.61-.905 1.442-1.357 2.497-1.357.669 0 1.313.25 1.817.702.493.428.774 1.047.774 1.702v.44c-.727-.405-1.641-.619-2.767-.619-1.312 0-2.367.31-3.153.94-.785.63-1.184 1.464-1.184 2.523a3.176 3.176 0 001.114 2.5c.738.666 1.676.999 2.778.999 1.301 0 2.333-.583 3.118-1.75h.082v1.417h1.806v-6.296c0-1.32-.399-2.368-1.208-3.118zm-5.123 7.533a1.552 1.552 0 01-.622-1.25c0-.559.258-1.023.763-1.392.516-.369 1.16-.559 1.923-.559 1.055-.012 1.876.226 2.462.702 0 .81-.317 1.512-.938 2.107a2.977 2.977 0 01-2.122.892 2.284 2.284 0 01-1.466-.5zM54.693 35L61 20.303H58.95l-2.92 7.33h-.035l-2.99-7.33h-2.05l4.138 9.556L52.747 35h1.946z" fill="#3C4043"/><path d="M27.544 23.16c0-.584-.046-1.167-.14-1.738h-7.96v3.296h4.56a3.972 3.972 0 01-1.688 2.606v2.142h2.72c1.594-1.487 2.508-3.689 2.508-6.307z" fill="#4285F4"/><path d="M19.444 31.537c2.274 0 4.197-.762 5.592-2.07l-2.72-2.143c-.762.524-1.735.821-2.872.821-2.204 0-4.068-1.51-4.736-3.534h-2.802v2.213c1.43 2.892 4.35 4.713 7.538 4.713z" fill="#34A853"/><path d="M14.708 24.611a5.244 5.244 0 010-3.284v-2.202h-2.802a8.609 8.609 0 000 7.688l2.802-2.202z" fill="#FBBC04"/><path d="M19.444 17.792a4.506 4.506 0 013.236 1.285l2.415-2.451a8.08 8.08 0 00-5.651-2.226c-3.189 0-6.108 1.833-7.538 4.725l2.802 2.213c.668-2.035 2.532-3.546 4.736-3.546z" fill="#EA4335"/></symbol><symbol fill="none" viewBox="0 0 28 28" id="instagram" xmlns="http://www.w3.org/2000/svg"><circle cx="14" cy="14" r="14" fill="#fff"/><circle cx="14" cy="14" r="13.5" stroke="#000" stroke-opacity=".2"/><path d="M14 8.447c1.81 0 2.024.007 2.738.04.43.005.855.084 1.258.233a2.244 2.244 0 011.286 1.286c.15.402.228.828.233 1.258.032.714.04.928.04 2.737 0 1.809-.007 2.023-.04 2.737a3.76 3.76 0 01-.233 1.259 2.243 2.243 0 01-1.286 1.285c-.403.15-.828.228-1.258.234-.714.032-.928.039-2.737.039-1.81 0-2.024-.007-2.738-.04a3.758 3.758 0 01-1.258-.233 2.244 2.244 0 01-1.286-1.285 3.758 3.758 0 01-.233-1.259c-.032-.714-.04-.928-.04-2.737 0-1.809.008-2.023.04-2.737.005-.43.084-.855.233-1.258a2.243 2.243 0 011.286-1.286c.403-.15.829-.228 1.258-.233.715-.033.929-.04 2.738-.04zm0-1.22c-1.838 0-2.07.007-2.792.04a4.973 4.973 0 00-1.645.315c-.452.17-.861.437-1.2.782a3.318 3.318 0 00-.782 1.2 4.974 4.974 0 00-.314 1.645c-.033.721-.04.953-.04 2.792 0 1.838.007 2.07.04 2.793.011.562.118 1.118.315 1.645.17.452.437.861.782 1.2.338.344.747.611 1.2.781a4.972 4.972 0 001.645.315c.722.032.953.04 2.792.04 1.84 0 2.07-.007 2.793-.04a4.972 4.972 0 001.645-.315 3.468 3.468 0 001.981-1.982 4.974 4.974 0 00.315-1.645c.032-.722.04-.954.04-2.792 0-1.839-.008-2.07-.04-2.793a4.974 4.974 0 00-.316-1.645 3.32 3.32 0 00-.781-1.2 3.319 3.319 0 00-1.2-.782 4.974 4.974 0 00-1.645-.314c-.722-.033-.954-.04-2.792-.04z" fill="#000"/><path d="M14.002 10.523a3.479 3.479 0 100 6.958 3.479 3.479 0 000-6.958zm0 5.737a2.258 2.258 0 110-4.516 2.258 2.258 0 010 4.516zM17.618 11.198a.813.813 0 100-1.626.813.813 0 000 1.626z" fill="#000"/></symbol><symbol fill="none" viewBox="0 0 159 25" id="logo" xmlns="http://www.w3.org/2000/svg"><path d="M11.6 24.747C3.867 24.72.213 22.32.4 16.507h6.64c.08 1.52 1.36 2.453 4.56 2.48 2.827.026 4.133-.774 4.133-1.814 0-.72-.4-1.466-2.586-1.786l-2.88-.454C6.027 14.24.933 13.733.933 8c0-4.427 3.6-7.147 10.72-7.147C18.08.853 22.56 2.64 22.427 9.04H15.84c-.267-1.493-1.52-2.427-4.347-2.427-2.453 0-3.466.747-3.466 1.76 0 .64.4 1.414 2.106 1.68l2.374.4c4.453.747 10.56.88 10.56 7.014 0 4.88-3.787 7.306-11.467 7.28zM40.545 1.6h7.386V24h-7.386v-8.107H31.85V24h-7.386V1.6h7.386v8.107h8.694V1.6zm21.557 23.147c-7.707 0-12.694-4.774-12.694-11.947 0-7.173 4.987-11.947 12.694-11.947 7.706 0 12.693 4.774 12.693 11.947 0 7.173-4.987 11.947-12.693 11.947zm0-6.374c2.933 0 5.36-2.026 5.36-5.573 0-3.547-2.427-5.573-5.36-5.573-2.934 0-5.36 2.026-5.36 5.573 0 3.547 2.426 5.573 5.36 5.573zM76.277 24V1.6h12.72c6.107 0 9.733 2.72 9.733 8.747 0 6.026-3.626 8.746-9.706 8.746h-5.36V24h-7.387zm7.387-11.04h4.693c1.787 0 2.933-.88 2.933-2.613 0-1.734-1.146-2.614-2.906-2.614h-4.72v5.227zm18.762 11.467c-2 0-3.68-1.654-3.68-3.627 0-1.973 1.68-3.627 3.68-3.627s3.68 1.654 3.68 3.627c0 1.973-1.68 3.627-3.68 3.627zm17.725.32c-7.546 0-12.586-4.774-12.586-11.947 0-7.173 5.04-11.947 12.586-11.947 5.467 0 11.067 2.4 11.814 9.974h-7.04c-.614-2.454-2.347-3.6-4.774-3.6-2.933 0-5.253 2.186-5.253 5.573 0 3.387 2.32 5.573 5.253 5.573 2.427 0 4.16-1.146 4.774-3.653h7.04c-.747 7.627-6.294 10.027-11.814 10.027zm25.857 0c-7.707 0-12.693-4.774-12.693-11.947 0-7.173 4.986-11.947 12.693-11.947s12.693 4.774 12.693 11.947c0 7.173-4.986 11.947-12.693 11.947zm0-6.374c2.933 0 5.36-2.026 5.36-5.573 0-3.547-2.427-5.573-5.36-5.573-2.933 0-5.36 2.026-5.36 5.573 0 3.547 2.427 5.573 5.36 5.573z" fill="#000"/></symbol><symbol fill="none" viewBox="0 0 72 48" id="mastercard" xmlns="http://www.w3.org/2000/svg"><path d="M4 .5h64A3.5 3.5 0 0171.5 4v40a3.5 3.5 0 01-3.5 3.5H4A3.5 3.5 0 01.5 44V4A3.5 3.5 0 014 .5z" fill="#fff" stroke="#DDD"/><path fill-rule="evenodd" clip-rule="evenodd" d="M36 34.732a13.81 13.81 0 01-9.05 3.368C19.247 38.1 13 31.787 13 24S19.246 9.9 26.95 9.9A13.81 13.81 0 0136 13.268 13.809 13.809 0 0145.05 9.9C52.753 9.9 59 16.213 59 24s-6.246 14.1-13.95 14.1A13.809 13.809 0 0136 34.732z" fill="#ED0006"/><path fill-rule="evenodd" clip-rule="evenodd" d="M36 34.732A14.13 14.13 0 0040.902 24 14.13 14.13 0 0036 13.268 13.809 13.809 0 0145.05 9.9C52.753 9.9 59 16.213 59 24s-6.246 14.1-13.95 14.1A13.809 13.809 0 0136 34.732z" fill="#F9A000"/><path fill-rule="evenodd" clip-rule="evenodd" d="M36 34.731A14.13 14.13 0 0040.902 24 14.13 14.13 0 0036 13.268 14.13 14.13 0 0031.1 24 14.13 14.13 0 0036 34.73z" fill="#FF5E00"/></symbol><symbol fill="none" viewBox="0 0 72 48" id="paypal" xmlns="http://www.w3.org/2000/svg"><rect x=".5" y=".5" width="71" height="47" rx="3.5" fill="#fff" stroke="#DDD"/><path d="M45.789 17h-4.357a.606.606 0 00-.597.514l-1.762 11.227a.364.364 0 00.358.422h2.236a.424.424 0 00.417-.36l.5-3.183a.605.605 0 01.598-.514h1.378c2.87 0 4.525-1.395 4.958-4.161.196-1.21.008-2.16-.556-2.827-.618-.73-1.716-1.117-3.173-1.117zm.502 4.101c-.237 1.571-1.432 1.571-2.587 1.571h-.657l.462-2.934a.362.362 0 01.358-.308h.301c.786 0 1.529 0 1.912.45.229.27.298.67.211 1.221zM58.808 21.05h-2.085a.362.362 0 00-.358.308l-.092.587-.146-.213c-.452-.658-1.458-.879-2.463-.879-2.305 0-4.273 1.755-4.657 4.217-.198 1.228.084 2.402.777 3.22.637.754 1.545 1.067 2.627 1.067 1.857 0 2.887-1.2 2.887-1.2l-.093.582a.364.364 0 00.36.423h1.877a.606.606 0 00.598-.514l1.128-7.176a.365.365 0 00-.36-.421zM55.9 25.132c-.2 1.198-1.148 2.002-2.354 2.002-.604 0-1.09-.195-1.4-.565-.309-.368-.425-.89-.328-1.473.19-1.188 1.15-2.018 2.338-2.018.592 0 1.074.198 1.39.57.32.378.446.904.354 1.484zM61.267 17.309L59.479 28.74a.364.364 0 00.358.422h1.797a.605.605 0 00.599-.514l1.762-11.227a.364.364 0 00-.357-.422h-2.013a.364.364 0 00-.358.309z" fill="#179BD7"/><path d="M14.72 17h-4.356a.606.606 0 00-.598.514L8.005 28.741a.364.364 0 00.359.422h2.08a.606.606 0 00.597-.515l.475-3.028a.606.606 0 01.598-.514h1.379c2.869 0 4.525-1.395 4.957-4.161.195-1.21.009-2.16-.555-2.827-.62-.73-1.717-1.117-3.175-1.117zm.502 4.101c-.238 1.571-1.432 1.571-2.587 1.571h-.657l.461-2.934a.363.363 0 01.359-.308h.301c.787 0 1.529 0 1.912.45.229.27.299.67.212 1.221zM27.74 21.05h-2.085a.364.364 0 00-.359.309l-.092.586-.146-.213c-.452-.658-1.459-.879-2.464-.879-2.305 0-4.273 1.755-4.657 4.217-.2 1.228.084 2.402.777 3.22.636.754 1.545 1.067 2.628 1.067 1.857 0 2.887-1.2 2.887-1.2l-.093.582a.364.364 0 00.358.423h1.878c.299 0 .551-.218.598-.514l1.128-7.176a.363.363 0 00-.358-.421zm-2.907 4.081c-.201 1.198-1.147 2.002-2.353 2.002-.606 0-1.09-.195-1.4-.565-.31-.367-.426-.89-.328-1.473.188-1.188 1.15-2.018 2.337-2.018.592 0 1.074.198 1.391.57.318.378.444.904.353 1.484zM38.849 21.05h-2.096c-.2 0-.388.1-.502.267l-2.89 4.281-1.226-4.113a.607.607 0 00-.58-.434h-2.06a.365.365 0 00-.345.482l2.309 6.81-2.17 3.08a.365.365 0 00.295.577h2.094a.603.603 0 00.497-.261l6.972-10.115a.365.365 0 00-.298-.573z" fill="#253B80"/></symbol><symbol fill="none" viewBox="0 0 24 24" id="search" xmlns="http://www.w3.org/2000/svg"><path d="M21.796 20.204l-4.452-4.454a8.636 8.636 0 10-1.594 1.594l4.456 4.457a1.126 1.126 0 101.594-1.594l-.004-.003zM4.125 10.5a6.375 6.375 0 116.375 6.375A6.381 6.381 0 014.125 10.5z" fill="#000"/></symbol><symbol fill="none" viewBox="0 0 19 17" id="star-gray" xmlns="http://www.w3.org/2000/svg"><path d="M9.245.255l2.62 5.64 6.172.748-4.554 4.234 1.196 6.102-5.434-3.023-5.434 3.023 1.196-6.102L.452 6.643l6.174-.748L9.245.255z" fill="#C7C7CC"/></symbol><symbol fill="none" viewBox="0 0 18 17" id="star-yellow" xmlns="http://www.w3.org/2000/svg"><path d="M9.047.255l2.619 5.64 6.173.748-4.554 4.234 1.196 6.102-5.434-3.023-5.434 3.023 1.196-6.102L.254 6.643l6.174-.748L9.047.255z" fill="#FFC633"/></symbol><symbol fill="none" viewBox="0 0 28 28" id="twitter-x" xmlns="http://www.w3.org/2000/svg"><circle cx="14" cy="14" r="14" fill="#fff"/><circle cx="14" cy="14" r="13.5" stroke="#000" stroke-opacity=".2"/><path d="M20.207 10.983a5.106 5.106 0 01-1.327.373c.466-.28.838-.722 1.001-1.258a5.044 5.044 0 01-1.466.56 2.32 2.32 0 00-1.676-.722 2.285 2.285 0 00-2.282 2.28c0 .187.023.35.07.513a6.523 6.523 0 01-4.726-2.398c-.186.35-.302.722-.302 1.141 0 .791.396 1.49 1.024 1.909a2.693 2.693 0 01-1.047-.28v.024a2.3 2.3 0 001.838 2.258c-.186.046-.395.07-.605.07a2.85 2.85 0 01-.442-.047c.303.908 1.14 1.583 2.142 1.583a4.658 4.658 0 01-2.84.978c-.187 0-.373 0-.536-.023a6.478 6.478 0 003.515 1.024c4.214 0 6.519-3.492 6.519-6.518v-.303a4.18 4.18 0 001.14-1.164z" fill="#000"/></symbol><symbol fill="none" viewBox="0 0 24 24" id="user" xmlns="http://www.w3.org/2000/svg"><path d="M12 1.875A10.125 10.125 0 1022.125 12 10.137 10.137 0 0012 1.875zM7.46 18.428a5.625 5.625 0 019.08 0 7.848 7.848 0 01-9.08 0zm1.915-7.178a2.625 2.625 0 115.25 0 2.625 2.625 0 01-5.25 0zm8.813 5.62a7.827 7.827 0 00-2.72-2.196 4.875 4.875 0 10-6.937 0 7.827 7.827 0 00-2.719 2.195 7.875 7.875 0 1112.366 0h.01z" fill="#000"/></symbol><symbol fill="none" viewBox="0 0 72 48" id="visa" xmlns="http://www.w3.org/2000/svg"><path d="M4 .5h64A3.5 3.5 0 0171.5 4v40a3.5 3.5 0 01-3.5 3.5H4A3.5 3.5 0 01.5 44V4A3.5 3.5 0 014 .5z" fill="#fff" stroke="#DDD"/><path fill-rule="evenodd" clip-rule="evenodd" d="M21.5 32.466h-4.673l-3.504-13.344c-.167-.613-.52-1.156-1.04-1.412-1.296-.642-2.724-1.154-4.283-1.412v-.514h7.528a1.96 1.96 0 011.949 1.668l1.818 9.625 4.67-11.293h4.544L21.5 32.466zm9.607 0h-4.414l3.635-16.682h4.413l-3.634 16.682zm9.344-12.06c.13-.898.91-1.412 1.818-1.412 1.429-.13 2.985.129 4.284.77l.78-3.592a11.192 11.192 0 00-4.025-.772c-4.283 0-7.4 2.31-7.4 5.518 0 2.44 2.207 3.72 3.766 4.492 1.686.77 2.336 1.283 2.206 2.052 0 1.154-1.299 1.668-2.596 1.668-1.558 0-3.117-.384-4.543-1.027l-.78 3.594c1.56.64 3.245.898 4.804.898 4.803.127 7.788-2.182 7.788-5.646 0-4.364-6.102-4.62-6.102-6.543zm21.55 12.06l-3.505-16.682h-3.764c-.78 0-1.559.514-1.819 1.284l-6.489 15.398h4.544l.906-2.438h5.583l.52 2.438H62zm-6.62-12.19l1.297 6.288h-3.635l2.338-6.287z" fill="#172B85"/></symbol></svg>